<?xml version="1.0" encoding="iso-8859-1"?>
<!-- Generator: Adobe Illustrator 15.0.0, SVG Export Plug-In . SVG Version: 6.00 Build 0)  -->
<!DOCTYPE svg PUBLIC "-//W3C//DTD SVG 1.1//EN" "http://www.w3.org/Graphics/SVG/1.1/DTD/svg11.dtd">
<svg version="1.1" id="Layer_1" xmlns="http://www.w3.org/2000/svg" xmlns:xlink="http://www.w3.org/1999/xlink" x="0px" y="0px"
	 width="128px" height="128px" style="enable-background:new 0 0 128 128;" xml:space="preserve">
<g>
	<circle style="fill:#F2CF61;" cx="64" cy="64" r="64"/>
	<g>
		<path style="fill:#A67C52;" d="M63.979,30.004c-14.029,0-25.402,10.743-25.402,23.996c0,3.58,0,12.496,0,16.496
			c0,0.229,0.016,0.443,0.04,0.654c0.295,9.617,6.362,26.846,25.362,26.846c20,0,25.068-17.229,25.363-26.846
			c0.024-0.211,0.04-0.426,0.04-0.654c0-4,0-12.916,0-16.496C89.383,40.747,78.01,30.004,63.979,30.004z"/>
		<path style="fill:#A67C52;" d="M83.417,38.507c2.667-0.917,13.187,0.323,16.104,8.573c2.916,8.25,1.166,20.25,3,25.25
			c1.832,5-2.334,6.418-3.834,6.334s-10.5,0.666-11.166-14.251C86.854,49.496,83.417,38.507,83.417,38.507z"/>
		<path style="fill:#99724C;" d="M102.521,72.33c-1.834-5-0.084-17.001-3-25.25c-2.875-8.128-13.114-9.447-15.967-8.607
			c4.144,0.676,9.562,3.044,11.527,8.607c2.917,8.25,1.167,20.25,3,25.25c1.354,3.695-0.566,5.431-2.268,6.053
			c1.338,0.301,2.432,0.258,2.873,0.281C100.188,78.748,104.354,77.33,102.521,72.33z"/>
		<path style="fill:#99724C;" d="M63.979,30.004c-0.436,0-0.867,0.011-1.299,0.031C76.107,30.674,86.784,41.159,86.784,54
			c0,3.58,0,12.496,0,16.496c0,0.229-0.017,0.443-0.04,0.654c-0.288,9.398-5.146,26.058-24.033,26.81
			c0.418,0.019,0.835,0.036,1.268,0.036c20,0,25.068-17.229,25.363-26.846c0.024-0.211,0.04-0.426,0.04-0.654c0-4,0-12.916,0-16.496
			C89.383,40.747,78.01,30.004,63.979,30.004z"/>
		<path style="fill:#99724C;" d="M85.736,38.255c-0.99-0.019-1.805,0.074-2.319,0.251c0,0,0.009,0.03,0.022,0.074
			c3.707,4.17,5.942,9.547,5.942,15.419c0,3.58,0,12.496,0,16.496c0,0.229-0.016,0.444-0.04,0.653
			c-0.016,0.506-0.048,1.035-0.091,1.578c0.629,1.379,1.379,2.44,2.185,3.25c0.301-1.727,0.457-3.365,0.502-4.828
			c0.024-0.209,0.041-0.426,0.041-0.653c0-4,0-12.916,0-16.496C91.979,47.973,89.621,42.47,85.736,38.255z"/>
		<path style="fill:#F5F5F5;" d="M63.979,30.004c-1.235,0-2.449,0.088-3.64,0.249c0.841,3.831,1.64,8.584,1.64,11.743
			c0,29.089-14.207,37.783-14.455,49.889c3.879,3.617,9.229,6.111,16.455,6.111c7.318,0,12.633-2.313,16.449-5.71
			c0.063-12.317-14.449-20.884-14.449-50.29c0-3.159,0.799-7.913,1.639-11.743C66.43,30.092,65.215,30.004,63.979,30.004z"/>
		<path style="fill:#EDEDED;" d="M57.052,64.378c0,2.548-2.065,4.618-4.618,4.618c-2.554,0-4.619-2.07-4.619-4.618
			c0-2.558,2.065-4.619,4.619-4.619C54.986,59.759,57.052,61.82,57.052,64.378z"/>
		<circle style="fill:#242424;" cx="52.434" cy="64.378" r="2.31"/>
		<path style="fill:#EDEDED;" d="M80.146,64.378c0,2.548-2.065,4.618-4.619,4.618c-2.553,0-4.618-2.07-4.618-4.618
			c0-2.558,2.065-4.619,4.618-4.619S80.146,61.82,80.146,64.378z"/>
		<circle style="fill:#242424;" cx="75.527" cy="64.378" r="2.31"/>
		<path style="fill:#A67C52;" d="M44.583,38.507c-2.667-0.917-13.187,0.323-16.104,8.573c-2.916,8.25-1.166,20.25-3,25.25
			c-1.832,5,2.334,6.418,3.834,6.334s10.5,0.666,11.166-14.251C41.146,49.496,44.583,38.507,44.583,38.507z"/>
		<path style="fill:#242424;" d="M65.611,87.949l6.93-6.928c0.598-0.601,0.82-1.477,0.582-2.287
			c-0.239-0.812-0.904-1.428-1.732-1.605c-6.945-1.484-7.871-1.484-14.82,0c-0.828,0.178-1.493,0.794-1.732,1.605
			c-0.238,0.811-0.016,1.688,0.582,2.287l6.928,6.928c0.188,0.188,0.405,0.328,0.633,0.438v0.711c-2.279,0.465-4,2.484-4,4.898
			c0,0.553,0.446,1,1,1c0.553,0,1-0.447,1-1c0-1.654,1.346-3,3-3c1.653,0,3,1.346,3,3c0,0.553,0.446,1,1,1c0.553,0,1-0.447,1-1
			c0-2.414-1.722-4.436-4-4.898v-0.709C65.206,88.277,65.424,88.139,65.611,87.949z"/>
		<path style="fill:#99724C;" d="M38.616,71.15c-0.024-0.211-0.04-0.426-0.04-0.654c0-4,0-12.916,0-16.496
			c0-5.904,2.262-11.306,6.005-15.486c0-0.001,0.002-0.007,0.002-0.007c-0.522-0.18-1.354-0.272-2.364-0.25
			c-3.884,4.214-6.24,9.717-6.24,15.743c0,3.58,0,12.496,0,16.496c0,0.229,0.017,0.443,0.041,0.654
			c0.045,1.457,0.225,3.093,0.56,4.813c0.787-0.795,1.522-1.833,2.144-3.175C38.669,72.225,38.632,71.675,38.616,71.15z"/>
	</g>
</g>
</svg>
