<?xml version="1.0" encoding="UTF-8" standalone="no"?>
<svg
   version="1.1"
   id="svg10"
   xml:space="preserve"
   width="185.89095"
   height="129.198"
   xmlns="http://www.w3.org/2000/svg"
   xmlns:svg="http://www.w3.org/2000/svg"
   xmlns:rdf="http://www.w3.org/1999/02/22-rdf-syntax-ns#"
   xmlns:cc="http://creativecommons.org/ns#"
   xmlns:dc="http://purl.org/dc/elements/1.1/"><metadata
     id="metadata16"><rdf:RDF><cc:Work
         rdf:about=""><dc:format>image/svg+xml</dc:format><dc:type
           rdf:resource="http://purl.org/dc/dcmitype/StillImage" /></cc:Work></rdf:RDF></metadata><defs
     id="defs14" /><g
     id="g18"
     transform="matrix(1.3333333,0,0,-1.3333333,-45.081067,204.21866)"><g
       id="g578"><g
         id="g78"><path
           d="m 80.0988,68.2752 c -1.146,1.648 -2.976,1.83 -3.725,1.83 -3.294,0 -5.261,-2.602 -5.261,-5.12 0,-2.892 2.311,-5.156 5.261,-5.156 0.741,0 2.567,0.182 3.725,1.819 v -1.599 h 1.379 v 9.791 h -1.379 z m -3.725,-7.192 c -2.212,0 -3.882,1.655 -3.882,3.849 0,2.572 1.953,3.919 3.882,3.919 2.093,0 3.795,-1.751 3.795,-3.901 0,-2.168 -1.667,-3.867 -3.795,-3.867"
           style="fill:#10244b;fill-opacity:1;fill-rule:nonzero;stroke:none"
           id="path80" /></g><g
         id="g82"><path
           d="m 91.3798,64.667 c 0,-1.717 -0.466,-2.325 -0.986,-2.844 -0.508,-0.508 -1.161,-0.757 -1.997,-0.757 -0.928,0 -1.663,0.301 -2.186,0.891 -0.453,0.567 -0.674,1.384 -0.674,2.498 v 5.387 h -1.377 v -5.404 c 0,-1.387 0.29,-2.447 0.862,-3.152 0.441,-0.551 1.466,-1.474 3.375,-1.474 1.915,0 2.775,1.099 3.054,1.591 v -1.352 h 1.308 v 9.791 h -1.379 z"
           style="fill:#10244b;fill-opacity:1;fill-rule:nonzero;stroke:none"
           id="path84" /></g><g
         id="g86"><path
           d="m 103.114,68.2405 c -1.182,1.681 -2.963,1.867 -3.689,1.867 -2.462,0 -5.121,-1.984 -5.121,-5.191 0,-3.141 2.659,-5.086 5.121,-5.086 1.217,0 2.894,0.502 3.689,1.866 v -0.647 c 0,-2.605 -1.845,-3.53 -3.424,-3.53 -2.344,0 -3.266,1.673 -3.553,2.392 l -0.018,0.046 h -1.45 l 0.027,-0.092 c 0.976,-3.341 4.082,-3.6 5.011,-3.6 0.265,0 2.623,0.051 3.889,1.811 0.896,1.202 0.896,2.517 0.896,3.573 v 8.193 h -1.378 z m -3.689,-7.155 c -2.063,0 -3.742,1.735 -3.742,3.867 0,2.15 1.679,3.901 3.742,3.901 2.073,0 3.76,-1.751 3.76,-3.901 0,-1.559 -1.195,-3.867 -3.76,-3.867"
           style="fill:#10244b;fill-opacity:1;fill-rule:nonzero;stroke:none"
           id="path88" /></g><g
         id="g90"><path
           d="m 117.011,70.0928 c -0.862,0 -2.488,-0.377 -3.248,-1.77 -0.761,1.393 -2.387,1.77 -3.249,1.77 -0.882,0 -1.989,-0.379 -2.558,-1.191 v 0.944 h -1.38 v -9.801 h 1.38 v 5.668 c 0,1.002 0.172,1.516 0.431,1.977 0.436,0.739 1.192,1.148 2.127,1.148 0.935,0 1.692,-0.409 2.127,-1.147 0.26,-0.462 0.432,-0.976 0.432,-1.978 v -5.668 h 1.379 v 5.668 c 0,1.001 0.172,1.514 0.431,1.977 0.437,0.739 1.194,1.148 2.128,1.148 0.936,0 1.691,-0.409 2.127,-1.147 0.26,-0.464 0.433,-0.977 0.433,-1.978 v -5.668 h 1.378 v 5.81 c 0,3.345 -2.475,4.238 -3.938,4.238"
           style="fill:#10244b;fill-opacity:1;fill-rule:nonzero;stroke:none"
           id="path92" /></g><g
         id="g94"><path
           d="m 127.651,70.1011 c -2.803,-0.053 -5.084,-2.366 -5.084,-5.156 0,-2.823 2.289,-5.12 5.102,-5.12 2.165,0 4.101,1.381 4.818,3.437 l 0.034,0.095 h -1.458 l -0.017,-0.047 c -0.369,-1.005 -1.48,-2.192 -3.393,-2.23 -1.846,0 -3.54,1.557 -3.667,3.353 h 8.783 l 0.004,0.066 c 0.065,1.155 -0.188,2.196 -0.75,3.095 -0.689,1.199 -2.199,2.489 -4.372,2.507 m -3.656,-4.413 c 0.362,2.073 2.112,3.158 3.674,3.158 1.502,0 3.284,-0.99 3.693,-3.158 z"
           style="fill:#10244b;fill-opacity:1;fill-rule:nonzero;stroke:none"
           id="path96" /></g><g
         id="g98"><path
           d="m 138.935,70.0928 c -1.444,0 -2.454,-0.706 -2.93,-1.377 v 1.13 h -1.379 v -9.801 h 1.379 v 5.387 c -0.016,1.111 0.297,2.032 0.878,2.596 0.773,0.751 1.766,0.81 2.052,0.81 0.286,0 1.28,-0.059 2.051,-0.81 0.578,-0.559 0.896,-1.481 0.896,-2.598 v -5.385 h 1.379 v 5.385 c 0,1.483 -0.423,2.68 -1.221,3.459 -0.833,0.833 -1.79,1.204 -3.105,1.204"
           style="fill:#10244b;fill-opacity:1;fill-rule:nonzero;stroke:none"
           id="path100" /></g><g
         id="g102"><path
           d="m 148.188,73.2612 h -1.379 v -3.416 h -2.03 v -1.257 h 2.03 v -8.544 h 1.379 v 8.544 h 2.313 v 1.257 h -2.313 z"
           style="fill:#10244b;fill-opacity:1;fill-rule:nonzero;stroke:none"
           id="path104" /></g><g
         id="g106"><path
           d="m 156.375,70.104 c -2.804,-0.052 -5.084,-2.365 -5.084,-5.155 0,-2.824 2.289,-5.121 5.102,-5.121 2.165,0 4.101,1.381 4.817,3.437 l 0.033,0.095 h -1.456 l -0.018,-0.046 c -0.369,-1.005 -1.479,-2.192 -3.393,-2.23 -1.845,0 -3.54,1.557 -3.666,3.352 h 8.783 l 0.003,0.068 c 0.066,1.153 -0.187,2.195 -0.75,3.093 -0.689,1.2 -2.198,2.489 -4.371,2.507 m -3.658,-4.413 c 0.363,2.074 2.114,3.159 3.676,3.159 1.502,0 3.283,-0.989 3.693,-3.159 z"
           style="fill:#10244b;fill-opacity:1;fill-rule:nonzero;stroke:none"
           id="path108" /></g><g
         id="g110"><path
           d="m 171.85,73.2571 v -4.964 c -1.239,1.672 -3.155,1.803 -3.725,1.803 -3.292,0 -5.26,-2.602 -5.26,-5.12 0,-2.89 2.31,-5.156 5.26,-5.156 1.187,0 2.778,0.49 3.725,1.821 v -1.59 h 1.379 v 13.206 z m -3.725,-12.181 c -2.212,0 -3.882,1.653 -3.882,3.848 0,2.572 1.954,3.918 3.882,3.918 2.093,0 3.796,-1.749 3.796,-3.901 0,-2.168 -1.666,-3.865 -3.796,-3.865"
           style="fill:#10244b;fill-opacity:1;fill-rule:nonzero;stroke:none"
           id="path112" /></g><path
         d="m 42.563001,73.596002 h -1.313 v -1.97 h 1.313 z"
         style="fill:#10244b;fill-opacity:1;fill-rule:nonzero;stroke:none"
         id="path114" /><g
         id="g116"><path
           d="m 36.7788,73.2571 h -2.861 v -1.237 h 1.552 v -10.734 h -1.659 v -1.238 h 4.504 v 1.238 h -1.536 z"
           style="fill:#10244b;fill-opacity:1;fill-rule:nonzero;stroke:none"
           id="path118" /></g><g
         id="g120"><path
           d="m 42.8756,69.8453 h -2.861 v -1.238 h 1.553 v -7.321 h -1.589 v -1.238 h 4.451 v 1.238 h -1.554 z"
           style="fill:#10244b;fill-opacity:1;fill-rule:nonzero;stroke:none"
           id="path122" /></g><g
         id="g124"><path
           d="m 48.2747,72.6296 c -0.858,-0.767 -0.889,-1.65 -0.924,-2.719 v -0.069 h -1.554 v -1.274 h 1.572 v -7.281 h -1.572 v -1.238 h 4.469 v 1.238 h -1.59 v 7.281 h 1.59 v 1.274 h -1.59 l 0.002,0.21 c 0.017,0.707 0.032,1.317 0.625,1.763 0.319,0.259 0.728,0.404 1.25,0.444 l 0.066,0.005 v 1.184 l -0.076,-0.006 c -1.028,-0.065 -1.727,-0.316 -2.268,-0.812"
           style="fill:#10244b;fill-opacity:1;fill-rule:nonzero;stroke:none"
           id="path126" /></g><g
         id="g128"><path
           d="m 57.012,69.8465 c -2.719,0 -4.932,-2.268 -4.932,-5.057 0,-2.73 2.245,-4.95 5.004,-4.95 1.971,0 3.763,1.155 4.566,2.941 l 0.045,0.102 h -1.414 l -0.022,-0.036 c -0.658,-1.145 -1.828,-1.799 -3.211,-1.799 -1.906,0 -3.485,1.456 -3.629,3.327 h 8.632 v 0.432 c 0,2.827 -2.213,5.04 -5.039,5.04 m -3.588,-4.354 c 0.254,1.732 1.837,3.13 3.571,3.13 1.909,0 3.487,-1.313 3.783,-3.13 z"
           style="fill:#10244b;fill-opacity:1;fill-rule:nonzero;stroke:none"
           id="path130" /></g><g
         id="g132"><path
           d="m 66.5224,59.788 c 0.937,0 1.697,0.759 1.697,1.696 0,0.937 -0.76,1.697 -1.697,1.697 -0.937,0 -1.697,-0.76 -1.697,-1.697 0,-0.937 0.76,-1.696 1.697,-1.696"
           style="fill:#10244b;fill-opacity:1;fill-rule:nonzero;stroke:none"
           id="path134" /></g><g
         id="g136"><path
           d="M 171.019,153.164 76.64,153.157 c 0.002,0 0.007,-0.008 0.007,-0.008 -7.161,0 -13.314,-4.281 -15.989,-10.385 L 42.028,97.886 c -0.051,-0.117 -0.08,-0.243 -0.08,-0.377 0,-0.538 0.444,-0.973 0.989,-0.973 l 42.616,0.003 c 3.029,0 4.348,2.916 1.986,5.242 l -15.652,14.645 c -8.226,8.063 -4.698,26.761 12.384,26.761 h 83.427 c 0.431,0 0.802,0.274 0.935,0.657 l 3.301,7.976 c 0.047,0.113 0.071,0.239 0.071,0.371 0,0.537 -0.439,0.973 -0.986,0.973"
           style="fill:#10244b;fill-opacity:1;fill-rule:nonzero;stroke:none"
           id="path138" /></g><g
         id="g140"><path
           d="m 161.616,130.322 -16.02,-0.017 c -1.081,0 -2.009,-0.652 -2.398,-1.586 l -17.95,-43.376 c -0.071,-0.134 -0.112,-0.289 -0.112,-0.449 0,-0.536 0.443,-0.971 0.985,-0.971 l 5.981,-0.002 -0.002,0.005 c 7.262,0 13.53,4.399 16.143,10.64 0,0 0.012,-0.007 0.02,-0.014 l 14.268,34.437 c 0.044,0.112 0.071,0.233 0.071,0.36 0,0.54 -0.443,0.973 -0.986,0.973"
           style="fill:#10244b;fill-opacity:1;fill-rule:nonzero;stroke:none"
           id="path142" /></g><g
         id="g144"><path
           d="m 130.124,129.349 c 0,0.54 -0.444,0.973 -0.988,0.973 H 83.713 c -2.462,0 -4.619,-3.029 -2.011,-5.431 L 96.71,110.927 c 0,0 6.078,-5.601 4.774,-13.613 -1.149,-7.055 -5.963,-11.375 -9.446,-12.929 l -0.01,-0.002 c -0.083,-0.043 -0.139,-0.127 -0.139,-0.218 0,-0.135 0.109,-0.244 0.248,-0.244 l 17.505,-0.003 c 1.084,0 2.013,0.652 2.399,1.587 l 18.017,43.498 c 0.043,0.11 0.066,0.225 0.066,0.346"
           style="fill:#10244b;fill-opacity:1;fill-rule:nonzero;stroke:none"
           id="path146" /></g></g></g></svg>
